<?xml version="1.0" encoding="utf-8"?>
<!-- Generator: Adobe Illustrator 25.4.1, SVG Export Plug-In . SVG Version: 6.00 Build 0)  -->
<svg version="1.1" id="Layer_1" xmlns="http://www.w3.org/2000/svg" xmlns:xlink="http://www.w3.org/1999/xlink" x="0px" y="0px"
	 viewBox="0 0 500 500" style="enable-background:new 0 0 500 500;" xml:space="preserve">
<style type="text/css">
	.st0{fill:#FFFFFF;}
	.st1{fill:#F9F9FA;}
	.st2{fill:#44B6E5;}
	.st3{fill:#25286A;}
	.st4{fill:#44B6E5;stroke:#44B6E5;stroke-miterlimit:10;}
</style>
<path class="st0" d="M187.7,244.3c0,0-0.7-7.8-11.2-7.8c0,0-10.2-0.9-11.1,5.8c0,0-2.4,10,9.7,10.6c0,0,10.4-0.9,5.8,4.8
	c0,0-11.1,0.8-10.2-2.2l-5.5-0.3c0,0-1.2,8.5,10.1,8.7c0,0,11.1,1,12.4-6.1c0,0,2-8.3-7.1-10.7c0,0-13.6,1.2-8.9-4.6
	c0,0,10.1-1.6,10.9,2H187.7z"/>
<path class="st0" d="M209.8,244.7c-3.3-3.2-8.1-3.4-10.9-1.1c-3.6,3-3.1,9.7,0.9,12.5c2.8,2,6.9,1.8,10-0.5l4.4,4.1
	c-3.9,3.6-9.4,4.8-14.4,3.1c-5-1.8-8.7-6.3-9.4-11.6c0-0.8-0.2-7.7,5.1-11.9c5-4,12.8-3.9,18.7,0.7L209.8,244.7z"/>
<polygon class="st1" points="215.3,263.5 216.6,259.7 226.2,259.7 227.5,263.5 "/>
<polygon class="st1" points="221.4,245.5 218.5,254 224,254 "/>
<polygon class="st0" points="224,236.5 233.5,263.5 238.1,263.5 238.1,245.5 247.1,259.7 255.5,245.5 255.5,263.5 260.9,263.5 
	260.9,236.5 253.9,236.5 247.4,248.6 239.1,236.5 "/>
<path class="st2" d="M299,244c0,0-0.7-7.8-11.2-7.8c0,0-10.2-0.9-11.1,5.8c0,0-2.4,10,9.7,10.6c0,0,10.4-0.9,5.8,4.8
	c0,0-11.1,0.8-10.2-2.2l-5.5-0.3c0,0-1.2,8.5,10.1,8.7c0,0,11.1,1,12.4-6.1c0,0,2-8.3-7.1-10.7c0,0-13.6,1.2-8.9-4.6
	c0,0,10.1-1.6,10.9,2H299z"/>
<path class="st2" d="M321.7,244.7c-3.3-3.2-8.1-3.4-10.9-1.1c-3.6,3-3.1,9.7,0.9,12.5c2.8,2,6.9,1.8,10-0.5l4.4,4.1
	c-3.9,3.6-9.4,4.8-14.4,3.1c-5-1.8-8.7-6.3-9.4-11.6c0-0.8-0.2-7.7,5.1-11.9c5-4,12.8-3.9,18.7,0.7L321.7,244.7z"/>
<path class="st2" d="M328.1,263.4v-27H346c0,0,12.8,10.6,0,18.8l5.7,8.3H345l-3.7-5.6h-7.3l0.2,5.6L328.1,263.4z"/>
<path class="st3" d="M334.3,241.8h8c0,0,7.5,4.9,0,10h-8V241.8z"/>
<rect x="354.5" y="236.5" class="st2" width="5.4" height="27"/>
<path class="st0" d="M364.2,241.8v5h10.2c0,0,3.6-2,0-5H364.2z"/>
<path class="st0" d="M364.2,252.7v5h10.2c0,0,3.6-2,0-5H364.2z"/>
<path class="st2" d="M377.1,236.5c0,0,7.4,5.7,2.1,13.5c0,0,6,6.8-3.2,13.5h28.1v-5.7H387v-5h11.9v-5.4l-11.8,0.1v-5.5h17v-5.3
	H377.1z"/>
<path class="st2" d="M120.1,232.7H99.5c-1.5,0-2.8,1.2-2.8,2.8v29.1c0,1.5,1.2,2.8,2.8,2.8h29c1.5,0,2.8-1.2,2.8-2.8v-21.4
	c0-2.5-3-3.7-4.7-2l-13.2,13.2c-1.1,1.1-2.9,1.1-4-0.1l-0.1-0.1c-1-1.1-1-2.8,0-3.8l12.7-13.1C123.8,235.6,122.5,232.7,120.1,232.7z
	"/>
<path class="st3" d="M105.7,254.7l-1,3.6c-0.1,0.4,0.2,0.7,0.6,0.6l3.4-0.9c0.4-0.1,0.5-0.6,0.3-0.8l-2.4-2.7
	C106.3,254.2,105.8,254.3,105.7,254.7z"/>
<line class="st4" x1="148.2" y1="232.8" x2="148.2" y2="267.5"/>
</svg>
